<svg width="400" height="400" viewBox="0 0 400 400" fill="none" xmlns="http://www.w3.org/2000/svg">
  <rect width="400" height="400" fill="#E5E7EB"/>
  <path d="M200 150C183.431 150 170 163.431 170 180C170 196.569 183.431 210 200 210C216.569 210 230 196.569 230 180C230 163.431 216.569 150 200 150ZM166 250C166 233.431 152.569 220 136 220H134C126.268 220 120 226.268 120 234V250C120 266.569 133.431 280 150 280H166V250ZM250 280H266C282.569 280 296 266.569 296 250V234C296 226.268 289.732 220 282 220H280C263.431 220 250 233.431 250 250V280ZM310 120H90C84.4772 120 80 124.477 80 130V270C80 275.523 84.4772 280 90 280H110V250C110 220.5 133.5 197 163 197C174.297 197 184.796 200.924 193 207.551C201.204 200.924 211.703 197 223 197C252.5 197 276 220.5 276 250V280H310C315.523 280 320 275.523 320 270V130C320 124.477 315.523 120 310 120Z" fill="#9CA3AF"/>
</svg>