<svg width="200" height="60" viewBox="0 0 200 60" fill="none" xmlns="http://www.w3.org/2000/svg">
  <!-- Circular arrow representing recycling/reuse -->
  <path d="M40 30C40 35.5228 35.5228 40 30 40C24.4772 40 20 35.5228 20 30C20 24.4772 24.4772 20 30 20" stroke="#16A34A" stroke-width="4" stroke-linecap="round"/>
  <path d="M30 20C33 20 35.5 21 37.5 23" stroke="#16A34A" stroke-width="4" stroke-linecap="round"/>
  <path d="M37.5 17L37.5 23L31.5 23" stroke="#16A34A" stroke-width="4" stroke-linecap="round" stroke-linejoin="round"/>
  
  <!-- Text: ReWear -->
  <path d="M60 25H65C67.7614 25 70 27.2386 70 30C70 32.7614 67.7614 35 65 35H60V25ZM65 32C66.1046 32 67 31.1046 67 30C67 28.8954 66.1046 28 65 28H63V32H65Z" fill="#16A34A"/>
  <path d="M72 25H75V32H80V35H72V25Z" fill="#16A34A"/>
  <path d="M90 30L86 35H83L87 30L83 25H86L90 30Z" fill="#16A34A"/>
  <path d="M92 25H95V32H100V35H92V25Z" fill="#16A34A"/>
  <path d="M102 25H110V28H105V29H109V31H105V32H110V35H102V25Z" fill="#16A34A"/>
  <path d="M112 25H115L118 30L121 25H124V35H121V30L118 35L115 30V35H112V25Z" fill="#16A34A"/>
</svg>